# xmcd
#
# Track frame offsets:
#	150
#	17459
#	35513
#	50473
#	73713
#	89311
#	100938
#	120051
#	140175
#	153623
#	171814
#	194216
#	207468
#	235677
#	253514
#	270550
#	283797
#	300355
#	318164
#	335698
#
# Disc length: 4784 seconds
#
# Revision: 4
# Processed by: cddbd v1.5.2PL0 Copyright (c) Steve Scherf et al.
# Submitted via: EasyCDDAExtractor 15.3.0.1
#
DISCID=1e12ae14
DTITLE=Alejandra Guzman - En Vivo
DYEAR=2003
DGENRE=Latin
TTITLE0=Ruge El Corazon
TTITLE1=Toda La Mitad
TTITLE2=Eternamente Bella
TTITLE3=Cuidado Con El Corazon
TTITLE4=Mala Hierba
TTITLE5=Ven
TTITLE6=Todo
TTITLE7=Algo Natural
TTITLE8=Reina De Corazones
TTITLE9=Güera
TTITLE10=Loca
TTITLE11=Wild Thing
TTITLE12=Hacer El Amor Con Otro
TTITLE13=Enemigos
TTITLE14=De Verdad
TTITLE15=Caramelo
TTITLE16=Mirala, Miralo
TTITLE17=Diablo
TTITLE18=Volvere A Amar
TTITLE19=Popurri (La Plaga, Popotitos, Polvora)
EXTD=
EXTT0=
EXTT1=
EXTT2=
EXTT3=
EXTT4=
EXTT5=
EXTT6=
EXTT7=
EXTT8=
EXTT9=
EXTT10=
EXTT11=
EXTT12=
EXTT13=
EXTT14=
EXTT15=
EXTT16=
EXTT17=
EXTT18=
EXTT19=
PLAYORDER=
